# xmcd CD database file
# Copyright (C) 1993-1998 Ti Kan
# 
# Track frame offsets:
#     180
#     4584
#     14739
#     30751
#     46643
#     63755
#     76428
#     90955
#     104218
#     118790
#     132809
#     146203
#     156225
#     172986
#     185151
#     198436
#     219566
#     233013
# 
# Disc length: 3287 seconds
# 
# Revision: 1
# Processed by: cddbd v1.4b41PL1 Copyright (c) Steve Scherf et al.
# Submitted via: DiscPlay 4.0.4
# 
DISCID=ec0cd512
DTITLE=Various Artist - Nashville:  The Other Side of the Alley (Insurgent 
DTITLE=Country Vol. 3)
DYEAR=1900
DGENRE=
TTITLE0=Tom House - The Hank Williams Memorial Myth
TTITLE1=Tim Carroll - Open Flame
TTITLE2=Phil Lee and the Sly Dogs - Daddy's Jail
TTITLE3=Paul Burch and His Honky Tonk Orchestra - Your Red Wagon
TTITLE4=R. B. Morris - Roy
TTITLE5=Hayseed - God-Shaped Hole
TTITLE6=Sonny George and the Tennessee Sons - Hillbilly Train
TTITLE7=Jason and the Scorchers - One Last Question
TTITLE8=Duane Jarvis - Cocktail Napkin
TTITLE9=Lambchop - Whitey
TTITLE10=Tom House - Cole Durhew
TTITLE11=Royann Calvin - Try It Again
TTITLE12=Dan Baird - Lonely at the Top
TTITLE13=Greg Garing - Safe Within Your Arms
TTITLE14=Kristi Rose and the Handsome Strangers - Rise and Shine
TTITLE15=Lonesome Bob - The Plans We Made
TTITLE16=Gwil Owen - No Ammunition
TTITLE17=Courtesy Move - Those I'll Provide
EXTD=
EXTT0=
EXTT1=
EXTT2=
EXTT3=
EXTT4=
EXTT5=
EXTT6=
EXTT7=
EXTT8=
EXTT9=
EXTT10=
EXTT11=
EXTT12=
EXTT13=
EXTT14=
EXTT15=
EXTT16=
EXTT17=
PLAYORDER=
